<svg width="48" height="48" viewBox="0 0 48 48" fill="none" xmlns="http://www.w3.org/2000/svg">
<path d="M43.1502 22.2822C42.5747 22.2864 42.0047 22.3962 41.4674 22.6064L35.7271 17.8217C35.8684 17.3001 35.9689 16.7589 35.9689 16.1886C35.9689 12.8103 33.3022 10.095 29.9844 10.095C26.6667 10.095 24 12.8103 24 16.1886C24 17.1538 24.2394 18.0532 24.6272 18.8625L17.6636 27.2424C17.3849 27.1893 17.1022 27.1607 16.8186 27.1571C16.3901 27.1571 15.9856 27.2302 15.593 27.3374L9.45775 21.0903C9.56547 20.693 9.63729 20.281 9.63729 19.8447C9.63729 17.1441 7.50203 14.9699 4.84972 14.9699C2.19741 14.9699 0.0621567 17.1441 0.0621567 19.8447C0.0621567 22.5454 2.19741 24.7196 4.84972 24.7196C5.27821 24.7196 5.68276 24.6465 6.07534 24.5393L12.2106 30.7864C12.0955 31.1914 12.0351 31.6104 12.0311 32.032C12.0311 34.7327 14.1663 36.9069 16.8186 36.9069C19.4709 36.9069 21.6062 34.7327 21.6062 32.032C21.6062 31.4543 21.4913 30.9107 21.3118 30.3964L28.2849 22.0068C28.8282 22.1676 29.3908 22.2822 29.9844 22.2822C30.9291 22.2769 31.8589 22.0421 32.6966 21.5973L38.4393 26.382C38.3942 26.638 38.3686 26.8971 38.3627 27.1571C38.3627 29.8578 40.4979 32.032 43.1502 32.032C45.8026 32.032 47.9378 29.8578 47.9378 27.1571C47.9378 24.4564 45.8026 22.2822 43.1502 22.2822Z" fill="#00A0C1"/>
</svg>
